HIERARCHY
ROOT hip
{
	OFFSET 0.000000 0.000000 0.000000 
	CHANNELS 6 Xposition Yposition Zposition Xrotation Zrotation Yrotation
	JOINT abdomen
	{
		OFFSET 0.000000 3.402643 0.000000 
		CHANNELS 3 Xrotation Zrotation Yrotation
		JOINT chest
		{
			OFFSET 0.000000 8.438565 -0.680529 
			CHANNELS 3 Xrotation Zrotation Yrotation
			JOINT neck
			{
				OFFSET 0.000000 10.207942 -0.272212 
				CHANNELS 3 Xrotation Zrotation Yrotation
				JOINT head
				{
					OFFSET 0.000000 3.130431 0.000000 
					CHANNELS 3 Xrotation Zrotation Yrotation
					End Site
					{
						OFFSET 0.000000 3.130435 0.000000 
					}
				}
			}
			JOINT lCollar
			{
				OFFSET 3.470700 6.669187 -0.816635 
				CHANNELS 3 Yrotation Zrotation Xrotation
				JOINT lShldr
				{
					OFFSET 3.198488 0.000000 0.000000 
					CHANNELS 3 Zrotation Yrotation Xrotation
					JOINT lForeArm
					{
						OFFSET 10.139888 0.000000 0.000000 
						CHANNELS 3 Yrotation Zrotation Xrotation
						JOINT lHand
						{
							OFFSET 8.370511 0.000000 0.000000 
							CHANNELS 3 Zrotation Yrotation Xrotation
							End Site
							{
								OFFSET 4.083176 0.000000 0.000000 
							}
						}
					}
				}
			}
			JOINT rCollar
			{
				OFFSET -3.470700 6.669187 -0.816635 
				CHANNELS 3 Yrotation Zrotation Xrotation
				JOINT rShldr
				{
					OFFSET -3.198488 0.000000 0.000000 
					CHANNELS 3 Zrotation Yrotation Xrotation
					JOINT rForeArm
					{
						OFFSET -10.139888 0.000000 0.000000 
						CHANNELS 3 Yrotation Zrotation Xrotation
						JOINT rHand
						{
							OFFSET -8.370511 0.000000 0.000000 
							CHANNELS 3 Zrotation Yrotation Xrotation
							End Site
							{
								OFFSET -4.083176 0.000000 0.000000 
							}
						}
					}
				}
			}
		}
	}
	JOINT lThigh
	{
		OFFSET 5.308129 -1.633274 1.361059 
		CHANNELS 3 Xrotation Zrotation Yrotation
		JOINT lShin
		{
			OFFSET -2.041588 -20.007561 0.000000 
			CHANNELS 3 Xrotation Zrotation Yrotation
			JOINT lFoot
			{
				OFFSET 0.000000 -19.190928 -1.224953 
				CHANNELS 3 Xrotation Yrotation Zrotation
				End Site
				{
					OFFSET 0.000000 -2.449906 4.627600 
				}
			}
		}
	}
	JOINT rThigh
	{
		OFFSET -5.308129 -1.633274 1.361059 
		CHANNELS 3 Xrotation Zrotation Yrotation
		JOINT rShin
		{
			OFFSET 2.041588 -20.007561 0.000000 
			CHANNELS 3 Xrotation Zrotation Yrotation
			JOINT rFoot
			{
				OFFSET 0.000000 -19.190928 -1.224953 
				CHANNELS 3 Xrotation Yrotation Zrotation
				End Site
				{
					OFFSET 0.000000 -2.449906 4.627600 
				}
			}
		}
	}
}
MOTION
Frames: 13
Frame Time: 0.033333
1.029232 9.910131 3.052201 44.297073 0.117187 0.097676 86.758682 -0.878842 -0.693577 -21.029633 -1.601490 -0.547207 -8.544920 -0.009766 -0.009767 -3.374551 19.470924 -11.421229 1.992188 -2.001953 0.000341 62.074577 -3.897738 -87.327820 1.942838 -1.010346 8.268781 -8.955896 -40.012066 -139.357620 -2.001953 1.992188 0.000000 -54.945572 0.385137 -108.597466 4.089799 0.921107 8.269855 18.125193 -27.208107 -98.421417 16.030149 7.156505 2.946214 62.799614 0.534160 -3.896650 35.811260 -3.817012 1.233128 25.355993 -10.251307 -0.484397 28.446184 1.215018 2.347842 86.362198 7.669434 -2.496513 
1.029232 9.878819 3.052201 44.531452 0.107422 0.107440 86.045792 -0.878842 -0.693577 -21.029633 -1.601490 -0.547207 -8.544920 -0.009766 -0.009767 -2.638115 19.473545 -11.381227 1.992188 -2.001953 0.000341 58.791817 -5.640471 -92.022858 -2.306534 -0.967614 8.284779 -8.955896 -40.012066 -139.357620 -2.001953 1.992188 0.000000 -52.070297 3.421791 -114.828880 7.805596 0.888046 8.291024 18.125193 -27.208107 -98.421417 15.463729 7.185726 2.906938 55.918583 0.086066 -3.682299 29.614758 -4.208820 0.376760 24.600155 -10.253338 -0.400928 24.984350 1.339087 2.138731 76.247299 8.019453 -0.642112 
1.029232 9.847499 3.052201 44.785339 0.097656 0.107438 85.323280 -0.878840 -0.703342 -21.029633 -1.601490 -0.547207 -8.544920 -0.009766 -0.009767 -1.903083 19.465929 -11.347158 1.992188 -2.001953 0.000341 55.651024 -7.641025 -96.623146 -6.546089 -0.928975 8.294841 -8.955896 -40.012066 -139.357620 -2.001953 1.992188 0.000000 -49.521057 6.757367 -120.929268 11.533310 0.848140 8.304964 18.125193 -27.208107 -98.421417 14.908232 7.205885 2.875306 49.043530 -0.302771 -3.432891 23.430559 -4.498414 -0.513554 23.856606 -10.242928 -0.312115 21.549049 1.450410 1.913286 66.103249 8.059043 1.232724 
1.029232 9.805003 3.052201 45.097858 0.107422 0.107440 84.532272 -0.878840 -0.703342 -21.029633 -1.601490 -0.547207 -8.544920 -0.009766 -0.009767 -1.108056 19.468533 -11.307157 1.992188 -2.001953 0.000341 41.571854 -13.958617 -95.812111 -25.276442 -0.753570 8.377897 -9.015598 -40.019173 -139.069550 -2.001953 1.992188 0.000000 -37.885780 18.011395 -118.043205 28.541351 0.706897 8.400181 18.125193 -27.208107 -98.421417 14.579225 7.227096 2.861681 43.844307 -0.581823 -3.196659 22.065863 -4.609270 -1.014835 23.318142 -10.251940 -0.284560 20.979961 1.466482 1.905887 57.771412 7.746445 2.493506 
1.029232 9.762510 3.052201 45.420124 0.107422 0.107440 83.751022 -0.878840 -0.703342 -21.029633 -1.601490 -0.547207 -8.544920 -0.009766 -0.009767 -0.303261 19.471125 -11.267154 1.992188 -2.001953 0.000341 26.940603 -19.884617 -93.367981 -44.004002 -0.609706 8.516681 -9.058018 -40.034718 -138.801346 -2.001953 1.992188 0.000000 -24.625708 28.396555 -112.404358 45.557068 0.589990 8.537684 18.125193 -27.208107 -98.421417 14.232949 7.234414 2.836344 38.623577 -0.837218 -2.921549 20.707708 -4.686855 -1.496558 22.780107 -10.251654 -0.224362 20.421799 1.489610 1.851379 49.444984 7.289857 3.706349 
1.029232 9.724484 3.052201 45.801003 0.117187 0.107442 82.881760 -0.869075 -0.703340 -21.029633 -1.601490 -0.547207 -8.544920 -0.009766 -0.009767 0.581677 19.464130 -11.223896 1.992188 -2.001953 0.000341 12.257311 -23.206053 -87.325043 -61.262417 -0.536857 8.678975 -9.015598 -40.019173 -139.069550 -2.001953 1.992188 0.000000 -9.055930 34.689037 -100.669823 61.288319 0.517130 8.687757 18.125193 -27.208107 -98.421417 14.232947 7.234414 2.836345 42.625259 -0.642786 -3.120624 44.283382 -4.686708 0.664351 22.780107 -10.251655 -0.224363 35.138657 0.920977 2.734611 50.535515 7.481597 2.022888 
1.029232 9.686464 3.052201 46.181839 0.117187 0.097676 82.012619 -0.869075 -0.703340 -21.029633 -1.601490 -0.547207 -8.544920 -0.009766 -0.009767 1.454828 19.466702 -11.183892 1.992188 -2.001953 0.000341 -3.003801 -24.959148 -80.452454 -78.524513 -0.505374 8.852187 -8.955896 -40.012066 -139.357620 -2.001953 1.992188 0.000000 8.720186 37.828712 -86.559975 77.019371 0.494940 8.852473 18.125193 -27.208107 -98.421417 14.232949 7.234411 2.836344 46.615761 -0.428894 -3.300836 67.807777 -3.823437 2.657611 22.780107 -10.251655 -0.224363 49.852264 0.157089 3.446362 51.623505 7.635884 0.321839 
1.029232 9.650675 3.052201 46.640846 0.117187 0.107442 81.094627 -0.878842 -0.693577 -21.029633 -1.601490 -0.547207 -8.544920 -0.009766 -0.009767 2.392020 19.460323 -11.131445 1.992188 -2.001953 0.000341 -4.805807 -24.805183 -79.630539 -80.199593 -0.507109 8.876126 -8.745412 -39.970303 -140.529556 -2.001953 1.992188 0.000000 11.024716 37.593311 -84.918762 78.548599 0.496147 8.865388 18.125193 -27.208107 -98.421417 14.232949 7.234414 2.836344 45.230293 -0.506707 -3.245198 69.371780 -3.942632 2.773140 22.780107 -10.251654 -0.224362 48.243912 0.245474 3.360503 53.400429 7.778977 0.198601 
1.029232 9.614892 3.052201 47.109577 0.107422 0.107440 80.176651 -0.878842 -0.693577 -21.029633 -1.601490 -0.547207 -8.544920 -0.009766 -0.009767 3.323763 19.462875 -11.088186 1.992188 -2.001953 0.000341 -6.612522 -24.626690 -78.821602 -81.883713 -0.500907 8.889866 -8.544670 -39.924484 -141.690262 -2.001953 1.992188 0.000000 13.307522 37.296219 -83.303680 80.073387 0.496771 8.881408 18.125193 -27.208107 -98.421417 14.232948 7.234414 2.836345 43.845089 -0.574649 -3.174578 70.926315 -4.071076 2.902295 22.780107 -10.251654 -0.224362 46.654537 0.333480 3.283098 55.190392 7.892587 0.090711 
1.029232 9.585815 3.052201 47.617390 0.107422 0.107440 79.190475 -0.878840 -0.703342 -21.029633 -1.601490 -0.547207 -8.544920 -0.009766 -0.009767 4.329295 19.456463 -11.035737 1.992188 -2.001953 0.000341 -8.081512 -24.353104 -78.095291 -83.150620 -0.510768 8.908686 -8.333088 -39.878883 -142.893921 -2.001953 1.992188 0.000000 15.201801 36.872688 -81.929054 81.237450 0.489654 8.887304 18.125193 -27.208107 -98.421417 14.232948 7.234416 2.836345 42.001057 -0.671909 -3.081002 71.231506 -4.324392 2.930204 22.780106 -10.251654 -0.224363 43.854824 0.489932 3.162211 57.197426 8.057731 0.057602 
1.029232 9.556748 3.052201 48.134933 0.097656 0.097673 78.204025 -0.869075 -0.703340 -21.029633 -1.601490 -0.547207 -8.544920 -0.009766 -0.009767 5.331369 19.449406 -10.995732 1.992188 -2.001953 0.000341 -9.546285 -24.056711 -77.368309 -84.419807 -0.521337 8.922750 -8.117102 -39.824089 -144.103409 -2.001953 1.992188 0.000000 17.066689 36.402279 -80.586128 82.391968 0.500611 8.903529 18.125193 -27.208107 -98.421417 14.232948 7.234414 2.836344 40.136917 -0.759486 -2.990350 71.536514 -4.578167 2.967374 22.780107 -10.251654 -0.224363 41.064926 0.636900 3.012787 59.224701 8.219462 0.033572 
1.029232 9.536615 3.052201 48.691589 0.097656 0.107438 77.168869 -0.869075 -0.703340 -21.029633 -1.601490 -0.547207 -8.544920 -0.009766 -0.009767 6.375934 19.442963 -10.943282 1.992188 -2.001953 0.000341 -10.694944 -23.692482 -76.737404 -85.316444 -0.512936 8.931674 -7.896405 -39.768799 -145.329681 -2.001953 1.992188 0.000000 18.555376 35.847778 -79.484657 83.219383 0.496554 8.909596 18.125193 -27.208107 -98.421417 14.232948 7.234414 2.836345 38.028019 -0.866543 -2.891553 70.865273 -4.884374 2.866854 22.780107 -10.251656 -0.224363 37.492466 0.813143 2.837982 61.307114 8.390420 0.087667 
1.029232 9.516489 3.052201 49.257992 0.087890 0.117202 76.133568 -0.869077 -0.693576 -21.029633 -1.601490 -0.547207 -8.544920 -0.009766 -0.009767 7.430250 19.436504 -10.890832 1.992188 -2.001953 0.000341 -11.835268 -23.316654 -76.120697 -86.213577 -0.514582 8.936290 -7.683280 -39.698624 -146.550079 -2.001953 1.992188 0.000000 20.018898 35.268116 -78.430977 84.040680 0.501386 8.923862 18.125193 -27.208107 -98.421417 14.232948 7.234414 2.836345 35.918339 -0.963535 -2.796268 70.202461 -5.191483 2.779174 22.780107 -10.251654 -0.224363 33.918839 0.979640 2.641984 63.399597 8.568806 0.135257 
